<?xml version="1.0" encoding="iso-8859-1"?>
<!-- Generator: Adobe Illustrator 19.0.0, SVG Export Plug-In . SVG Version: 6.00 Build 0)  -->
<svg xmlns="http://www.w3.org/2000/svg" xmlns:xlink="http://www.w3.org/1999/xlink" version="1.1" id="Layer_1" x="0px" y="0px" viewBox="0 0 512 512" style="enable-background:new 0 0 512 512;" xml:space="preserve">
<circle style="fill:#00ABE7;" cx="278.225" cy="181.311" r="173.474"/>
<path style="fill:#009AE5;" d="M278.23,322.596c-90.378,0-164.601-69.12-172.721-157.379c-0.488,5.3-0.749,10.664-0.749,16.09  c0,95.805,77.665,173.47,173.47,173.47s173.47-77.665,173.47-173.47c0-5.426-0.262-10.791-0.749-16.09  C442.831,253.476,368.609,322.596,278.23,322.596z"/>
<g>
	<path style="fill:#00BA64;" d="M284.92,167.979h-60.181c-13.177,0-23.86-10.683-23.86-23.86s10.683-23.86,23.86-23.86h52.574   c16.739,0,30.308-13.57,30.308-30.308s-13.57-30.308-30.308-30.308H154.596c-21.775,22.125-37.654,50.063-45.098,81.278   c13.736,0.863,24.619,12.245,24.619,26.199l0,0c0,14.516-11.768,26.283-26.283,26.283h-2.647   c2.934,42.589,21.238,80.945,49.408,109.569h47.909c8.245,0,14.929-6.684,14.929-14.93c0-8.245-6.684-14.929-14.929-14.929h-7.039   c-14.516,0-26.283-11.768-26.283-26.283c0-14.516,11.768-26.283,26.283-26.283h89.454c14.516,0,26.283-11.768,26.283-26.283   C311.203,179.746,299.435,167.979,284.92,167.979z"/>
	<path style="fill:#00BA64;" d="M371.999,189.905c0,8.245,6.684,14.929,14.929,14.929h7.039c14.516,0,26.283,11.768,26.283,26.283   s-11.768,26.283-26.283,26.283h-89.454c-14.516,0-26.283,11.768-26.283,26.283c0,14.516,11.768,26.283,26.283,26.283h60.181   c7.649,0,14.439,3.613,18.806,9.211c41.453-31.699,68.199-81.658,68.199-137.872c0-2.12-0.051-4.229-0.126-6.331H386.93   C378.684,174.975,371.999,181.66,371.999,189.905z"/>
</g>
<g>
	<path style="fill:#E0E0E3;" d="M399.467,504.163H133.585v-13.497c0-10.846,8.793-19.639,19.639-19.639h226.603   c10.846,0,19.639,8.793,19.639,19.639v13.497H399.467z"/>
	<path style="fill:#E0E0E3;" d="M305.693,471.136h-78.334v-22.295c0-7.545,6.117-13.662,13.662-13.662h51.01   c7.545,0,13.662,6.117,13.662,13.662V471.136z"/>
</g>
<path d="M411.791,303.783c29.631-32.286,47.747-75.304,47.747-122.477c0-41.211-13.475-80.05-38.97-112.315  c-2.683-3.398-7.613-3.976-11.007-1.29c-3.396,2.683-3.975,7.611-1.29,11.007c20.343,25.745,32.305,56.075,35.006,88.432H386.93  c-12.553,0-22.766,10.213-22.766,22.766s10.213,22.766,22.766,22.766h7.038c10.171,0,18.447,8.275,18.447,18.446  c0,10.171-8.276,18.447-18.447,18.447h-38.544c-4.329,0-7.837,3.508-7.837,7.837c0,4.329,3.508,7.837,7.837,7.837h38.544  c18.814,0,34.12-15.306,34.12-34.12c0-18.813-15.306-34.119-34.12-34.119h-7.038c-3.911,0-7.093-3.182-7.093-7.093  c0-3.911,3.182-7.093,7.093-7.093h56.916c-0.046,5.246-0.343,10.488-0.872,15.707c-4.581,44.157-26.581,83.214-58.991,110.166  c-5.471-4.223-12.193-6.555-19.288-6.555h-60.181c-10.171,0-18.447-8.275-18.447-18.446s8.276-18.447,18.447-18.447h17.256  c4.329,0,7.837-3.508,7.837-7.837s-3.508-7.837-7.837-7.837h-17.257c-18.814,0-34.12,15.306-34.12,34.12  c0,18.813,15.306,34.119,34.12,34.119h60.181c1.981,0,3.898,0.378,5.692,1.065c-26.364,17.718-58.072,28.07-92.156,28.07  c-38.963,0-74.821-13.531-103.139-36.13h27.414c12.553,0,22.766-10.213,22.766-22.766s-10.213-22.766-22.766-22.766h-7.039  c-10.171,0-18.446-8.275-18.446-18.446s8.275-18.447,18.446-18.447h89.454c18.814,0,34.12-15.306,34.12-34.12  c0-18.813-15.306-34.119-34.12-34.119h-60.181c-8.836,0-16.024-7.188-16.024-16.024c0-8.836,7.188-16.024,16.024-16.024h52.574  c21.034,0,38.145-17.112,38.145-38.146s-17.111-38.146-38.145-38.146h-36.22c-4.329,0-7.837,3.508-7.837,7.837  s3.508,7.837,7.837,7.837h36.22c12.39,0,22.472,10.081,22.472,22.473s-10.08,22.473-22.472,22.473h-52.574  c-17.478,0-31.697,14.219-31.697,31.697s14.219,31.697,31.697,31.697h60.181c10.171,0,18.447,8.275,18.447,18.446  c0,10.171-8.276,18.447-18.447,18.447h-89.454c-18.813,0-34.119,15.306-34.119,34.12c0,18.813,15.306,34.119,34.119,34.119h7.039  c3.911,0,7.093,3.182,7.093,7.093s-3.182,7.093-7.093,7.093h-44.482c-13.55-14.303-24.587-31.009-32.385-49.411  c-5.996-14.39-10.083-29.502-11.895-44.996c16.008-2.807,28.212-16.809,28.212-33.608c0-14.731-9.456-27.437-22.754-32.142  c7.467-25.591,20.952-48.639,38.821-67.499h50.174c4.329,0,7.837-3.508,7.837-7.837s-3.508-7.837-7.837-7.837h-33.104  c28.317-22.6,64.174-36.132,103.138-36.132c38.02,0,75.156,13.202,104.567,37.173c3.354,2.736,8.291,2.232,11.026-1.123  c2.734-3.355,2.232-8.291-1.123-11.026C360.5,14.453,319.847,0,278.23,0C178.258,0,96.925,81.334,96.925,181.307  s81.334,181.307,181.307,181.307c42.297,0,81.257-14.563,112.133-38.933c0.015,0.011,0.032,0.02,0.047,0.031  c1.279-1.009,2.545-2.036,3.797-3.081c-0.147,0.103,4.235-3.684,6.499-5.764l20.43,20.429  c-82.277,76.431-211.399,74.617-291.455-5.439c-25.305-25.306-43.815-56.761-53.527-90.967c-1.184-4.164-5.522-6.581-9.68-5.398  c-4.163,1.183-6.581,5.516-5.398,9.68c10.441,36.769,30.331,70.577,57.521,97.767c38,37.999,87.163,60.767,140.092,65.276v21.128  h-17.668c-11.854,0-21.499,9.644-21.499,21.499v14.349h-66.299c-15.15,0-27.476,12.326-27.476,27.477v13.497  c0,4.329,3.508,7.837,7.837,7.837h265.882c4.329,0,7.837-3.508,7.837-7.837v-13.496c0-15.151-12.326-27.477-27.477-27.477h-66.298  v-14.349c0-11.854-9.643-21.499-21.498-21.499h-17.668v-20.33c1.288,0.022,2.576,0.047,3.867,0.047  c60.301,0,116.993-23.483,159.632-66.121c3.06-3.062,3.06-8.023,0-11.083L411.791,303.783z M126.281,167.119  c0,8.505-5.795,15.665-13.638,17.789c-0.026-1.199-0.046-2.398-0.046-3.603c0-10.566,1.006-20.9,2.907-30.922  C121.878,153.306,126.281,159.737,126.281,167.119z M391.63,490.667v5.659H141.422v-5.659c0-6.509,5.293-11.803,11.802-11.803h72.89  c0.406,0.065,0.82,0.109,1.246,0.109h78.334c0.424,0,0.839-0.043,1.245-0.109h72.89C386.335,478.864,391.63,484.159,391.63,490.667z   M297.855,448.842v14.349h-62.659v-14.349c0-3.212,2.613-5.825,5.825-5.825h51.01C295.242,443.016,297.855,445.629,297.855,448.842z  "/>
<path d="M62.301,211.781c4.304-0.448,7.431-4.301,6.984-8.606C62.697,139.844,84.71,77.729,129.681,32.758  c3.061-3.062,3.061-8.023,0-11.083c-3.062-3.059-8.023-3.059-11.083,0C70.273,70.001,46.616,136.746,53.694,204.797  c0.419,4.029,3.821,7.027,7.786,7.027C61.75,211.824,62.025,211.809,62.301,211.781z"/>
<g>
</g>
<g>
</g>
<g>
</g>
<g>
</g>
<g>
</g>
<g>
</g>
<g>
</g>
<g>
</g>
<g>
</g>
<g>
</g>
<g>
</g>
<g>
</g>
<g>
</g>
<g>
</g>
<g>
</g>
</svg>
